<svg width="44" height="18" viewBox="0 0 44 18" fill="none" xmlns="http://www.w3.org/2000/svg">
<g clip-path="url(#clip0_418_757)">
<path d="M26.9194 0.501061H29.0504C29.0504 0.501061 30.32 0.43237 31.1228 1.40037L35.7757 7.26531H32.5107C32.5107 7.26531 31.0639 7.3286 30.4778 6.3464L26.9194 0.501061Z" fill="url(#paint0_linear_418_757)" style=""/>
<path d="M34.2504 12.5828L36.1663 15.7498C36.1663 15.7498 36.8705 17.3529 39.1969 17.3529H44.084L37.1634 8.9856L34.2504 9.65058C34.2504 9.65043 33.4491 10.7061 34.2504 12.5828Z" fill="url(#paint1_linear_418_757)" style=""/>
<path d="M38.2044 10.2453L37.0828 8.88647L34.2563 9.65041C34.2563 9.65041 33.455 10.7061 34.2563 12.5828L34.3739 12.783C34.3645 12.6589 34.2776 10.7223 38.2044 10.2453Z" fill="url(#paint2_linear_418_757)" style=""/>
<path d="M34.3652 12.7777C34.3652 12.7777 33.4798 10.5017 36.3688 9.41143C36.3688 9.41143 38.4268 8.67528 39.8034 9.11166C39.8034 9.11166 39.7081 7.44889 36.3278 7.55787C36.3278 7.55787 34.5428 7.54428 33.1387 8.035C33.1387 8.035 31.653 8.43016 32.757 10.1337L34.3652 12.7777Z" fill="url(#paint3_linear_418_757)" style=""/>
<path d="M15.6556 6.18798C14.3996 5.76565 14.4647 7.19673 14.4647 7.19673V8.94872H13.6541V6.65446C13.6541 6.1957 13.6477 5.86891 13.6279 5.56313H14.333L14.3593 6.10802C14.3593 6.10802 14.6164 5.2402 15.7013 5.55988L15.6556 6.18798ZM16.0569 8.94857V5.56313H16.8741V8.94872L16.0569 8.94857ZM16.0569 5.05744V4.31836H16.8741V5.05744H16.0569ZM20.0459 8.84437C19.8744 8.92773 19.5384 9.02513 19.1364 9.02513C18.1348 9.02513 17.4823 8.34378 17.4823 7.29413C17.4823 6.27921 18.0536 5.46866 19.2682 5.48687C19.5646 5.49135 19.8679 5.55633 20.0526 5.64663L20.0518 6.3479C19.92 6.28538 19.5845 6.15417 19.2946 6.15417C18.6752 6.15417 18.3061 6.63377 18.3128 7.25245C18.3128 7.94769 18.7411 8.34378 19.2946 8.34378C19.5781 8.34378 19.8823 8.23295 20.0405 8.16349L20.0459 8.84437ZM23.2775 8.13524C23.2775 8.44103 23.285 8.72814 23.3199 8.93653H22.5503L22.5012 8.57301H22.4805C22.2723 8.83727 21.9188 9.02498 21.4818 9.02498C20.8023 9.02498 20.421 8.53118 20.421 8.017C20.421 7.162 21.1768 6.73087 22.4248 6.73781V6.68224C22.4248 6.45981 22.3346 6.09135 21.7383 6.09135C21.4055 6.09135 20.9772 6.24741 20.7483 6.39343L20.714 5.71965C20.9637 5.56683 21.3501 5.48965 21.8839 5.48656C23.0547 5.47992 23.2773 6.1747 23.2773 6.91162L23.2775 8.13524ZM22.4455 7.29397C21.8425 7.28008 21.2669 7.41221 21.2669 7.92654C21.2669 8.26027 21.4818 8.4134 21.7524 8.4134C22.0921 8.4134 22.3417 8.19096 22.4181 7.94754C22.4369 7.88672 22.4462 7.82334 22.4456 7.75968L22.4455 7.29397ZM23.9378 6.68008C23.9378 6.29078 23.934 5.85317 23.914 5.56112L24.6777 5.56313L24.6852 6.01185L24.7371 5.93683C24.962 5.68569 25.0648 5.48672 25.7585 5.48672C26.3187 5.48672 26.8988 5.86891 26.8988 6.93956V8.9302H26.0881V7.03681C26.0881 6.55026 25.9169 6.1818 25.4751 6.1818C25.1522 6.1818 24.8751 6.42508 24.7893 6.6824C24.763 6.7588 24.7564 6.86315 24.7564 6.9604V8.93035H23.934L23.9378 6.68008ZM24.4478 13.7981C24.6576 13.9164 25.1134 14.0582 25.5401 14.0218C25.9431 13.9874 26.1243 13.8483 26.1243 13.626C26.1243 13.3965 25.9826 13.2505 25.525 13.1324C24.6608 12.909 24.3774 12.5146 24.3853 12.1184C24.3853 11.5207 24.8379 11.0814 25.7761 11.0814C26.1807 11.0814 26.4903 11.1715 26.6998 11.2757V11.8998C26.2838 11.7192 26.0365 11.6763 25.7142 11.6763C25.3846 11.6763 25.205 11.8374 25.205 12.0461C25.205 12.2616 25.3717 12.3833 25.8414 12.5188C26.5436 12.7216 26.9352 13.0556 26.9391 13.5562C26.9442 14.2717 26.375 14.6195 25.4087 14.6199C24.9311 14.6202 24.6607 14.5162 24.4319 14.4279L24.4478 13.7981ZM8.35555 5.48672C8.08573 5.48672 7.87981 5.53966 7.69751 5.6718C7.54238 5.76904 7.42013 5.90442 7.30528 6.09212H7.29201C7.15015 5.71671 6.79527 5.47144 6.36322 5.47144C5.80999 5.47144 5.51392 5.72536 5.35185 5.98932H5.33162L5.29797 5.56297H4.58251C4.60289 5.85502 4.60952 6.18165 4.60952 6.57095V8.94841H5.41946V6.94651C5.41946 6.84926 5.43304 6.75186 5.46669 6.66835C5.54094 6.43202 5.75025 6.1818 6.06082 6.1818C6.44549 6.1818 6.62779 6.51553 6.62779 6.98818V8.94872H7.43788V7.26233C7.44467 6.83676 7.53374 6.58546 7.58483 6.47756C7.67127 6.31718 7.80526 6.1818 8.05887 6.1818C8.45697 6.1818 8.64591 6.51553 8.64591 7.07879V8.94872H9.50076V6.95345C9.53518 5.84298 9.06685 5.48672 8.35555 5.48672ZM3.42372 8.93838H4.27147L2.61966 4.47149H1.71063L0 8.93838H0.821663L1.17515 7.94152H3.06947L3.42372 8.93838ZM1.37644 7.34538L2.12107 5.27293L2.85429 7.34538H1.37644ZM8.9432 14.557H9.79096L8.13899 10.0901H7.22995L5.51933 14.557H6.34099L6.69448 13.5599H8.58864L8.9432 14.557ZM6.89576 12.9638L7.6404 10.8914L8.37361 12.9638H6.89576ZM13.7265 11.789C12.4705 11.3665 12.5356 12.7976 12.5356 12.7976V14.5494H11.7251V12.2556C11.7251 11.7967 11.7186 11.4699 11.6989 11.1643H12.404L12.4304 11.709C12.4304 11.709 12.6874 10.8413 13.7722 11.161L13.7265 11.789ZM10.1008 14.5494V11.1641H10.9179V14.5494H10.1008ZM10.1008 10.6583V9.91919H10.9179V10.6583H10.1008ZM15.8092 14.5494V11.1641H16.6264V14.5494H15.8092ZM15.8092 10.6583V9.91919H16.6264V10.6583H15.8092ZM14.1993 9.90437H14.9911V14.5571H14.1993V9.90437ZM17.4343 12.3008C17.4343 11.9115 17.4304 11.4739 17.4107 11.1817L18.1741 11.1839L18.1817 11.6324L18.2334 11.5573C18.4583 11.3063 18.561 11.1073 19.2547 11.1073C19.815 11.1073 20.3949 11.4895 20.3949 12.5603V14.5509H19.5844V12.6574C19.5844 12.1709 19.4129 11.8024 18.9714 11.8024C18.6485 11.8024 18.3714 12.0457 18.2857 12.303C18.2593 12.3792 18.2527 12.4837 18.2527 12.581V14.5509H17.4303L17.4343 12.3008ZM21.699 13.036C21.7193 13.6478 22.1874 14.0184 22.7165 14.0184C23.103 14.0184 23.4213 13.9012 23.6722 13.8038L23.695 14.4318C23.4101 14.5502 23.0762 14.6199 22.6012 14.6199C21.5295 14.6199 20.8986 13.9386 20.8986 12.9028C20.8986 11.9645 21.3655 11.0815 22.5129 11.0815C23.5916 11.0815 23.9374 11.9852 23.9374 12.729C23.9374 12.8889 23.9238 12.9593 23.9099 13.0359L21.699 13.036ZM23.1506 12.4927C23.1574 12.1704 23.0201 11.6406 22.4577 11.6406C21.9365 11.6406 21.717 12.1346 21.6828 12.4927H23.1506ZM10.8523 7.42534C10.8727 8.03691 11.3409 8.40769 11.8697 8.40769C12.2566 8.40769 12.5747 8.29084 12.8255 8.19328L12.8484 8.82137C12.5637 8.93961 12.2294 9.00923 11.7546 9.00923C10.6829 9.00923 10.052 8.32788 10.052 7.29243C10.052 6.35392 10.5191 5.47097 11.6663 5.47097C12.7448 5.47097 13.0907 6.3746 13.0907 7.11816C13.0907 7.27807 13.0773 7.34877 13.0636 7.42518L10.8523 7.42534ZM12.3039 6.88214C12.3107 6.55983 12.1735 6.02991 11.611 6.02991C11.0897 6.02991 10.8702 6.52402 10.836 6.88214H12.3039Z" fill="#FAFAFA" fill-opacity="0.6" style="fill:#FAFAFA;fill:color(display-p3 0.9804 0.9804 0.9804);fill-opacity:0.6;"/>
</g>
<defs>
<linearGradient id="paint0_linear_418_757" x1="31.3476" y1="0.499981" x2="31.3476" y2="7.26608" gradientUnits="userSpaceOnUse">
<stop offset="0.033" stop-color="#19AADE" style="stop-color:#19AADE;stop-color:color(display-p3 0.0980 0.6667 0.8706);stop-opacity:1;"/>
<stop offset="0.951" stop-color="#134E8E" style="stop-color:#134E8E;stop-color:color(display-p3 0.0745 0.3059 0.5569);stop-opacity:1;"/>
</linearGradient>
<linearGradient id="paint1_linear_418_757" x1="38.9891" y1="8.9856" x2="38.9891" y2="17.3529" gradientUnits="userSpaceOnUse">
<stop offset="0.132" stop-color="#E02527" style="stop-color:#E02527;stop-color:color(display-p3 0.8784 0.1451 0.1529);stop-opacity:1;"/>
<stop offset="0.742" stop-color="#A1141C" style="stop-color:#A1141C;stop-color:color(display-p3 0.6314 0.0784 0.1098);stop-opacity:1;"/>
</linearGradient>
<linearGradient id="paint2_linear_418_757" x1="33.9003" y1="10.8348" x2="38.2044" y2="10.8348" gradientUnits="userSpaceOnUse">
<stop offset="0.005" stop-color="#71251D" style="stop-color:#71251D;stop-color:color(display-p3 0.4431 0.1451 0.1137);stop-opacity:1;"/>
<stop offset="0.742" stop-color="#C73127" style="stop-color:#C73127;stop-color:color(display-p3 0.7804 0.1922 0.1529);stop-opacity:1;"/>
</linearGradient>
<linearGradient id="paint3_linear_418_757" x1="32.3491" y1="10.1652" x2="39.8035" y2="10.1652" gradientUnits="userSpaceOnUse">
<stop offset="0.148" stop-color="#E8EBEE" style="stop-color:#E8EBEE;stop-color:color(display-p3 0.9098 0.9216 0.9333);stop-opacity:1;"/>
<stop offset="0.742" stop-color="#95A5AF" style="stop-color:#95A5AF;stop-color:color(display-p3 0.5843 0.6471 0.6863);stop-opacity:1;"/>
</linearGradient>
<clipPath id="clip0_418_757">
<rect width="44" height="17" fill="white" style="fill:white;fill-opacity:1;" transform="translate(0 0.5)"/>
</clipPath>
</defs>
</svg>
