<svg xmlns="http://www.w3.org/2000/svg" width="14" height="14" fill="none"><g clip-path="url(#a)"><g fill="#FAFAFA" clip-path="url(#b)"><path d="M9.694 0h.1c.08.987-.297 1.725-.755 2.26-.45.53-1.065 1.044-2.06.966-.067-.973.31-1.656.768-2.189C8.171.54 8.95.098 9.694 0ZM12.707 10.276v.028a8.145 8.145 0 0 1-1.165 2.247c-.445.612-.99 1.435-1.962 1.435-.84 0-1.399-.54-2.26-.555-.911-.015-1.412.452-2.245.569H4.79c-.612-.088-1.106-.573-1.465-1.01a8.844 8.844 0 0 1-2.033-5.087v-.627C1.358 5.75 2.1 4.51 3.085 3.91c.52-.32 1.235-.592 2.031-.47.341.052.69.169.995.285.29.11.652.308.995.298.232-.007.464-.128.698-.214.686-.247 1.358-.531 2.245-.398 1.065.161 1.822.635 2.289 1.365-.902.573-1.614 1.438-1.492 2.914.108 1.34.887 2.125 1.861 2.587Z" style="fill:#fafafa;fill:color(display-p3 .9804 .9804 .9804);fill-opacity:1"/></g></g><defs><clipPath id="a"><path fill="#fff" d="M0 0h14v14H0z" style="fill:#fff;fill-opacity:1"/></clipPath><clipPath id="b"><path fill="#fff" d="M0 0h14v14H0z" style="fill:#fff;fill-opacity:1"/></clipPath></defs></svg>