<svg xmlns="http://www.w3.org/2000/svg" width="16" height="16" fill="none"><path fill="#0770E3" d="M0 8a8 8 0 1 1 16 0A8 8 0 0 1 0 8Z" style="fill:#0770e3;fill:color(display-p3 .0275 .4392 .8902);fill-opacity:1"/><path fill="#fff" d="M8 11.47a.645.645 0 0 0 .33-.089l1.204-.693c.242-.137.522-.197.803-.164 1.462.17 2.485.445 2.787.533a.167.167 0 0 0 .17-.055c.05-.06.11-.16.16-.302.044-.138.05-.253.044-.336a.159.159 0 0 0-.115-.143c-.473-.137-2.568-.704-5.383-.704s-4.91.567-5.383.704a.159.159 0 0 0-.115.143.927.927 0 0 0 .044.336c.044.143.11.242.16.302.038.05.11.071.17.055.302-.088 1.33-.363 2.787-.533.28-.033.561.027.803.165l1.204.692a.66.66 0 0 0 .33.088ZM5.993 7.57a.476.476 0 0 0 .654.176.476.476 0 0 0 .176-.654L5.74 5.218c-.033-.06-.104-.083-.17-.077a.88.88 0 0 0-.352.132.918.918 0 0 0-.292.236.177.177 0 0 0-.016.187l1.083 1.875Zm-.99 1.342a.476.476 0 0 0 .654-.176.471.471 0 0 0-.176-.654L3.608 6.998a.177.177 0 0 0-.187.017.918.918 0 0 0-.236.291.88.88 0 0 0-.132.352c-.006.071.022.137.077.17l1.874 1.084Zm3.475-2.007A.468.468 0 0 1 8 7.384a.468.468 0 0 1-.478-.478V4.745c0-.072.044-.127.11-.154A.876.876 0 0 1 8 4.531c.165 0 .291.022.368.06.06.033.11.082.11.154v2.16Zm1.529.665a.476.476 0 0 1-.654.176.476.476 0 0 1-.176-.654l1.083-1.875c.033-.06.104-.083.17-.077a.88.88 0 0 1 .352.132.918.918 0 0 1 .291.236c.039.055.05.127.017.187l-1.083 1.875Zm.99 1.342a.476.476 0 0 1-.654-.176.476.476 0 0 1 .176-.654l1.874-1.084a.177.177 0 0 1 .187.017c.072.05.154.148.236.291a.882.882 0 0 1 .132.352c.006.071-.022.137-.077.17l-1.875 1.084Z" style="fill:#fff;fill-opacity:1"/></svg>