<svg xmlns="http://www.w3.org/2000/svg" width="50" height="12" fill="none"><g clip-path="url(#a)"><path fill="#C00" d="M36.565 9.695H34.64V2.28h1.924v7.415ZM32.009 2.28l-1.242 4.97-1.45-4.97h-1.861l-1.45 4.97-1.242-4.97h-1.886l2.047 7.415h1.992l1.467-5.085 1.469 5.085h1.987l2.053-7.415H32.01Zm-9.288 5.316c0-1.417-.754-1.898-2.403-2.435-.777-.253-1.503-.449-1.503-1.053 0-.53.54-.709.942-.709.341 0 .983.072 1.035.859h1.822c-.032-1.502-1.252-2.155-2.824-2.155-.974 0-1.78.276-2.286.775-.366.37-.57.87-.57 1.39 0 1.382.923 1.934 1.965 2.251 1.171.358 1.945.571 1.945 1.215 0 .43-.342.86-1.012.86-.856 0-1.167-.507-1.187-1.013h-1.843c0 1.709 1.44 2.335 3.03 2.335 2.025 0 2.893-1.157 2.893-2.323m20.651 0c0-1.635-1.19-2.067-2.632-2.497-.693-.203-1.316-.387-1.316-.991 0-.53.539-.709.943-.709.343 0 .982.072 1.033.859h1.823c-.032-1.502-1.252-2.156-2.826-2.156-.973 0-1.78.277-2.285.776-.365.37-.57.87-.569 1.39 0 1.382.92 1.934 1.965 2.251 1.17.358 1.947.571 1.947 1.215 0 .43-.341.86-1.012.86-.859 0-1.17-.507-1.189-1.013h-1.842c0 1.709 1.44 2.334 3.03 2.334 2.025 0 2.93-1.156 2.93-2.322m6.624 0c0-1.635-1.196-2.067-2.632-2.497-.696-.203-1.316-.387-1.316-.991 0-.53.535-.709.94-.709.34 0 .982.072 1.034.859h1.822c-.031-1.502-1.258-2.156-2.827-2.156-.961.012-1.77.288-2.277.787-.365.371-.569.87-.568 1.39 0 1.382.92 1.934 1.964 2.251 1.171.358 1.946.571 1.946 1.215 0 .43-.34.86-1.013.86-.858 0-1.169-.507-1.19-1.013h-1.848c0 1.709 1.438 2.339 3.037 2.339 2.032 0 2.936-1.156 2.936-2.323M12.68 11.793H0L9.294.207h6.24L12.68 11.793Z" style="fill:#c00;fill:color(display-p3 .8 0 0);fill-opacity:1"/><path fill="#fff" d="M10.74 4.931V2.437H8.601V4.93H6.107V7.07H8.6v2.495h2.14V7.07h2.496V4.931H10.74Z" style="fill:#fff;fill-opacity:1"/></g><defs><clipPath id="a"><path fill="#fff" d="M0 0h50v11.587H0z" style="fill:#fff;fill-opacity:1" transform="translate(0 .207)"/></clipPath></defs></svg>