<svg xmlns="http://www.w3.org/2000/svg" width="20" height="20" fill="none"><g stroke="#D946EF" stroke-linejoin="round" stroke-width="1.5" clip-path="url(#a)"><path d="M9.839 17.504h.294c3.028 0 4.542 0 5.6-.777a4 4 0 0 0 .852-.853c.777-1.057.777-2.571.777-5.6 0-1.141 0-1.712-.194-2.225a3.003 3.003 0 0 0-.224-.466c-.28-.472-.725-.829-1.617-1.542l-.344-.276C12.587 3.848 11.39 2.89 9.986 2.89s-2.602.958-4.998 2.875l-.344.276c-.892.713-1.337 1.07-1.617 1.542a3 3 0 0 0-.224.466c-.194.513-.194 1.084-.194 2.226 0 3.028 0 4.542.778 5.599.24.326.527.613.852.853 1.058.777 2.572.777 5.6.777Z" style="stroke:#d946ef;stroke:color(display-p3 .851 .2745 .9373);stroke-opacity:1"/><path d="M9.479 8.444a.327.327 0 0 1 .613 0 3.597 3.597 0 0 0 2.125 2.125.327.327 0 0 1 0 .613 3.597 3.597 0 0 0-2.125 2.125.327.327 0 0 1-.613 0 3.597 3.597 0 0 0-2.125-2.125.327.327 0 0 1 0-.613 3.597 3.597 0 0 0 2.125-2.125Z" style="stroke:#d946ef;stroke:color(display-p3 .851 .2745 .9373);stroke-opacity:1"/></g><defs><clipPath id="a"><path fill="#fff" d="M0 0h20v20H0z" style="fill:#fff;fill-opacity:1"/></clipPath></defs></svg>