<svg width="16" height="16" viewBox="0 0 16 16" fill="none" xmlns="http://www.w3.org/2000/svg">
<path d="M7.31248 2.035C7.59371 1.4395 8.40629 1.4395 8.68752 2.035L10.0749 4.97263C10.1865 5.2091 10.4024 5.37301 10.6521 5.41093L13.7543 5.882C14.3832 5.97749 14.6343 6.78509 14.1793 7.24862L11.9345 9.53524C11.7538 9.71931 11.6713 9.98451 11.714 10.2444L12.2439 13.4732C12.3513 14.1277 11.6939 14.6268 11.1315 14.3178L8.35677 12.7934C8.13342 12.6707 7.86658 12.6707 7.64323 12.7934L4.86853 14.3178C4.30607 14.6268 3.64868 14.1277 3.7561 13.4732L4.28602 10.2444C4.32868 9.98451 4.24622 9.71931 4.06552 9.53524L1.82075 7.24862C1.3657 6.78509 1.6168 5.97749 2.24566 5.882L5.34786 5.41093C5.59758 5.37301 5.81345 5.2091 5.92513 4.97263L7.31248 2.035Z" fill="#EAB308" style="fill:#EAB308;fill:color(display-p3 0.9176 0.7020 0.0314);fill-opacity:1;"/>
</svg>
