<svg xmlns="http://www.w3.org/2000/svg" width="20" height="20" fill="none"><rect width="15" height="10.833" x="2.5" y="5.829" stroke="#06B6D4" stroke-width="1.5" rx="2" style="stroke:#06b6d4;stroke:color(display-p3 .0235 .7137 .8314);stroke-opacity:1"/><path stroke="#06B6D4" stroke-linecap="round" stroke-linejoin="round" stroke-width="1.5" d="M15.682 13.562c-.5.284-.914.7-1.209 1.2M4.314 13.562c.5.284.913.7 1.208 1.2M14.633 7.828c.284.5.7.913 1.2 1.208M10.96 9.184c.822 0 1.376.773 1.376 1.492 0 1.46-2.294 2.657-2.336 2.657-.044 0-2.336-1.199-2.336-2.658 0-.723.55-1.494 1.376-1.494.47 0 .778.234.957.444.177-.21.488-.447.958-.447l.004.006ZM5.363 7.828c-.284.5-.7.913-1.2 1.208" style="stroke:#06b6d4;stroke:color(display-p3 .0235 .7137 .8314);stroke-opacity:1"/><path stroke="#06B6D4" stroke-width="1.5" d="m13.527 6.12-.62-1.63a2 2 0 0 0-1.87-1.287H8.955A2 2 0 0 0 7.073 4.53l-.568 1.59" style="stroke:#06b6d4;stroke:color(display-p3 .0235 .7137 .8314);stroke-opacity:1"/></svg>