<svg width="12" height="10" viewBox="0 0 12 10" fill="none" xmlns="http://www.w3.org/2000/svg">
<path d="M7.47827 0.936035C8.23807 1.06763 8.96481 1.29875 9.6445 1.61676C10.8329 3.39149 11.4234 5.39313 11.2054 7.7018C10.2961 8.38167 9.41409 8.79414 8.54693 9.06406C8.33221 8.76969 8.14226 8.4559 7.97792 8.12694C8.29092 8.00799 8.59152 7.86122 8.87562 7.69C8.80129 7.63432 8.7278 7.57612 8.65595 7.51622C6.94889 8.32431 5.07171 8.32431 3.34402 7.51622C3.273 7.57612 3.19949 7.63432 3.12434 7.69C3.40761 7.86038 3.70739 8.00715 4.02039 8.12609C3.85605 8.4559 3.66528 8.76884 3.45138 9.06322C2.58505 8.7933 1.70386 8.38082 0.794589 7.7018C0.60877 5.71029 0.980406 3.69009 2.35133 1.61844C3.03102 1.2996 3.7586 1.06763 4.51922 0.936035C4.61337 1.10474 4.72486 1.33165 4.80001 1.51216C5.59284 1.39069 6.39309 1.39069 7.20078 1.51216C7.27594 1.33165 7.38496 1.10474 7.47827 0.936035Z" stroke="#FAFAFA" stroke-opacity="0.5" style="stroke:#FAFAFA;stroke:color(display-p3 0.9804 0.9804 0.9804);stroke-opacity:0.5;" stroke-width="1.5" stroke-linecap="round" stroke-linejoin="round"/>
<path d="M4.62071 4.70375C4.62071 4.8976 4.47651 4.97052 4.34666 4.97052C4.21682 4.97052 4.05617 4.88621 4.05617 4.70375C4.05617 4.55447 4.14162 4.41318 4.34666 4.41318C4.56251 4.41318 4.62071 4.57404 4.62071 4.70375Z" stroke="#FAFAFA" stroke-opacity="0.5" style="stroke:#FAFAFA;stroke:color(display-p3 0.9804 0.9804 0.9804);stroke-opacity:0.5;" stroke-width="1.5" stroke-linecap="round" stroke-linejoin="round"/>
<path d="M7.94383 4.70375C7.94383 4.8976 7.79963 4.97052 7.66978 4.97052C7.53994 4.97052 7.37929 4.88621 7.37929 4.70375C7.37929 4.55447 7.46474 4.41318 7.66978 4.41318C7.88563 4.41318 7.94383 4.57404 7.94383 4.70375Z" stroke="#FAFAFA" stroke-opacity="0.5" style="stroke:#FAFAFA;stroke:color(display-p3 0.9804 0.9804 0.9804);stroke-opacity:0.5;" stroke-width="1.5" stroke-linecap="round" stroke-linejoin="round"/>
</svg>
