<svg xmlns="http://www.w3.org/2000/svg" width="98" height="85" fill="none"><g opacity=".2"><g filter="url(#a)"><ellipse cx="67.395" cy="46.344" fill="#E36E20" rx="12.576" ry="7.132" style="fill:#e36e20;fill:color(display-p3 .8889 .4307 .1252);fill-opacity:1"/></g><g filter="url(#b)"><ellipse cx="54.819" cy="52.076" fill="#F50AE1" rx="8.393" ry="8.04" style="fill:#f50ae1;fill:color(display-p3 .9595 .038 .8827);fill-opacity:1"/></g><g filter="url(#c)"><ellipse cx="56.401" cy="61.788" fill="#E87021" rx="15.178" ry="4.722" style="fill:#e87021;fill:color(display-p3 .9083 .4409 .1294);fill-opacity:1"/></g><g filter="url(#d)"><ellipse cx="35.586" cy="62.034" fill="#2EBCCC" rx="12.576" ry="4.967" style="fill:#2ebccc;fill:color(display-p3 .1819 .7385 .8004);fill-opacity:1"/></g><g filter="url(#e)"><ellipse cx="30.383" cy="54.46" fill="#F70" rx="12.576" ry="7.132" style="fill:#f70;fill:color(display-p3 1 .4667 0);fill-opacity:1"/></g><g filter="url(#f)"><ellipse cx="35.586" cy="47.083" fill="#507EE0" rx="12.576" ry="7.132" style="fill:#507ee0;fill:color(display-p3 .3137 .4927 .879);fill-opacity:1"/></g><g filter="url(#g)"><ellipse cx="43.392" cy="54.214" fill="#5800F0" rx="12.576" ry="7.132" style="fill:#5800f0;fill:color(display-p3 .3456 0 .9426);fill-opacity:1"/></g></g><g filter="url(#h)"><circle cx="46.889" cy="32" r="26" fill="#fff" fill-opacity=".4" style="fill:#fff;fill-opacity:.4"/><circle cx="46.889" cy="32" r="26" fill="url(#i)" fill-opacity=".2"/></g><circle cx="46.889" cy="32" r="25.75" stroke="#fff" stroke-opacity=".05" stroke-width=".5" style="stroke:#fff;stroke-opacity:.05"/><g filter="url(#j)"><circle cx="61.477" cy="24.749" r="7.251" fill="#E36E20" style="fill:#e36e20;fill:color(display-p3 .8889 .4307 .1252);fill-opacity:1"/></g><g filter="url(#k)"><ellipse cx="54.227" cy="30.577" fill="#F50AE1" rx="4.839" ry="8.174" style="fill:#f50ae1;fill:color(display-p3 .9595 .038 .8827);fill-opacity:1"/></g><g filter="url(#l)"><ellipse cx="55.138" cy="40.45" fill="#E87021" rx="8.751" ry="4.8" style="fill:#e87021;fill:color(display-p3 .9083 .4409 .1294);fill-opacity:1"/></g><g filter="url(#m)"><ellipse cx="43.138" cy="40.7" fill="#2EBCCC" rx="7.251" ry="5.05" style="fill:#2ebccc;fill:color(display-p3 .1819 .7385 .8004);fill-opacity:1"/></g><g filter="url(#n)"><circle cx="40.138" cy="33" r="7.251" fill="#F70" style="fill:#f70;fill:color(display-p3 1 .4667 0);fill-opacity:1"/></g><g filter="url(#o)"><circle cx="43.138" cy="25.5" r="7.251" fill="#fff" style="fill:#fff;fill-opacity:1"/></g><g filter="url(#p)"><circle cx="47.638" cy="32.751" r="7.251" fill="#5800F0" style="fill:#5800f0;fill:color(display-p3 .3456 0 .9426);fill-opacity:1"/></g><mask id="q" width="53" height="52" x="20" y="6" maskUnits="userSpaceOnUse" style="mask-type:alpha"><circle cx="46.889" cy="32" r="25.75" fill="#fff" fill-opacity=".8" stroke="#24262C" stroke-width=".5" style="fill:#fff;fill-opacity:.8;stroke:#24262c;stroke:color(display-p3 .1426 .1475 .1721);stroke-opacity:1"/></mask><g mask="url(#q)"><g filter="url(#r)" opacity=".5"><path fill="url(#s)" d="M28.044 34.766c2.801 3.124 3.21-1.271 3.748-4.189-2.418 13.1 11.938 18.385 11.938 18.385l-5.986-.92 4.1 5.768s-12.012-5.767-13.8-19.044Z" shape-rendering="crispEdges"/></g><g filter="url(#t)"><circle cx="43.391" cy="18.692" r="7.251" fill="#FF5050" style="fill:#ff5050;fill:color(display-p3 1 .3151 .3151);fill-opacity:1"/><circle cx="43.391" cy="18.692" r="7.001" stroke="#24262C" stroke-width=".5" style="stroke:#24262c;stroke:color(display-p3 .1426 .1475 .1721);stroke-opacity:1"/></g><g filter="url(#u)"><ellipse cx="38.315" cy="26.167" fill="#D9D9D9" rx="21.816" ry="1.43" style="fill:#d9d9d9;fill:color(display-p3 .851 .851 .851);fill-opacity:1" transform="rotate(-22.864 38.315 26.167)"/><path stroke="#24262C" stroke-width=".5" d="m58.18 17.7-.002.004a.025.025 0 0 1 .002-.005Zm-.261.146c.057-.005.107-.007.149-.008a2.11 2.11 0 0 1-.11.1c-.217.187-.563.428-1.036.719-.941.58-2.345 1.34-4.112 2.225-3.53 1.769-8.489 4.033-14.036 6.372-5.548 2.34-10.63 4.309-14.361 5.602-1.867.647-3.391 1.123-4.464 1.392-.538.134-.953.214-1.237.24a2.089 2.089 0 0 1-.15.008c.03-.03.067-.063.111-.1.217-.187.563-.428 1.036-.72.94-.58 2.345-1.339 4.111-2.224 3.531-1.769 8.49-4.033 14.037-6.372 5.547-2.34 10.63-4.309 14.361-5.602 1.867-.647 3.39-1.123 4.464-1.392.538-.134.953-.214 1.237-.24ZM18.385 34.48l.005.002a.02.02 0 0 1-.005-.002Zm.066.155.002-.005a.017.017 0 0 1-.002.005Zm39.79-16.783.005.002-.005-.002Z" style="stroke:#24262c;stroke:color(display-p3 .1426 .1475 .1721);stroke-opacity:1"/></g></g><g filter="url(#v)"><circle cx="46.889" cy="32" r="26" fill="#fff" fill-opacity=".4" style="fill:#fff;fill-opacity:.4"/><circle cx="46.889" cy="32" r="26" fill="url(#w)" fill-opacity=".2"/></g><circle cx="46.889" cy="32" r="25.75" stroke="#fff" stroke-opacity=".05" stroke-width=".5" style="stroke:#fff;stroke-opacity:.05"/><g filter="url(#x)"><circle cx="61.477" cy="24.749" r="7.251" fill="#E36E20" style="fill:#e36e20;fill:color(display-p3 .8889 .4307 .1252);fill-opacity:1"/></g><g filter="url(#y)"><ellipse cx="54.227" cy="30.577" fill="#F50AE1" rx="4.839" ry="8.174" style="fill:#f50ae1;fill:color(display-p3 .9595 .038 .8827);fill-opacity:1"/></g><g filter="url(#z)"><ellipse cx="55.138" cy="40.45" fill="#E87021" rx="8.751" ry="4.8" style="fill:#e87021;fill:color(display-p3 .9083 .4409 .1294);fill-opacity:1"/></g><g filter="url(#A)"><ellipse cx="43.138" cy="40.7" fill="#2EBCCC" rx="7.251" ry="5.05" style="fill:#2ebccc;fill:color(display-p3 .1819 .7385 .8004);fill-opacity:1"/></g><g filter="url(#B)"><circle cx="40.138" cy="33" r="7.251" fill="#F70" style="fill:#f70;fill:color(display-p3 1 .4667 0);fill-opacity:1"/></g><g filter="url(#C)"><circle cx="43.138" cy="25.5" r="7.251" fill="#fff" style="fill:#fff;fill-opacity:1"/></g><g filter="url(#D)"><circle cx="47.638" cy="32.751" r="7.251" fill="#5800F0" style="fill:#5800f0;fill:color(display-p3 .3456 0 .9426);fill-opacity:1"/></g><mask id="E" width="53" height="52" x="20" y="6" maskUnits="userSpaceOnUse" style="mask-type:alpha"><circle cx="46.889" cy="32" r="25.75" fill="#fff" fill-opacity=".8" stroke="#24262C" stroke-width=".5" style="fill:#fff;fill-opacity:.8;stroke:#24262c;stroke:color(display-p3 .1426 .1475 .1721);stroke-opacity:1"/></mask><g mask="url(#E)"><g filter="url(#F)" opacity=".5"><path fill="url(#G)" d="M28.044 34.766c2.801 3.124 3.21-1.271 3.748-4.189-2.418 13.1 11.938 18.385 11.938 18.385l-5.986-.92 4.1 5.768s-12.012-5.767-13.8-19.044Z" shape-rendering="crispEdges"/></g><g filter="url(#H)"><circle cx="43.391" cy="18.692" r="7.251" fill="#FF5050" style="fill:#ff5050;fill:color(display-p3 1 .3151 .3151);fill-opacity:1"/><circle cx="43.391" cy="18.692" r="7.001" stroke="#24262C" stroke-width=".5" style="stroke:#24262c;stroke:color(display-p3 .1426 .1475 .1721);stroke-opacity:1"/></g><g filter="url(#I)"><ellipse cx="38.315" cy="26.167" fill="#D9D9D9" rx="21.816" ry="1.43" style="fill:#d9d9d9;fill:color(display-p3 .851 .851 .851);fill-opacity:1" transform="rotate(-22.864 38.315 26.167)"/><path stroke="#24262C" stroke-width=".5" d="m58.18 17.7-.002.004a.025.025 0 0 1 .002-.005Zm-.261.146c.057-.005.107-.007.149-.008a2.11 2.11 0 0 1-.11.1c-.217.187-.563.428-1.036.719-.941.58-2.345 1.34-4.112 2.225-3.53 1.769-8.489 4.033-14.036 6.372-5.548 2.34-10.63 4.309-14.361 5.602-1.867.647-3.391 1.123-4.464 1.392-.538.134-.953.214-1.237.24a2.089 2.089 0 0 1-.15.008c.03-.03.067-.063.111-.1.217-.187.563-.428 1.036-.72.94-.58 2.345-1.339 4.111-2.224 3.531-1.769 8.49-4.033 14.037-6.372 5.547-2.34 10.63-4.309 14.361-5.602 1.867-.647 3.39-1.123 4.464-1.392.538-.134.953-.214 1.237-.24ZM18.385 34.48l.005.002a.02.02 0 0 1-.005-.002Zm.066.155.002-.005a.017.017 0 0 1-.002.005Zm39.79-16.783.005.002-.005-.002Z" style="stroke:#24262c;stroke:color(display-p3 .1426 .1475 .1721);stroke-opacity:1"/></g></g><path stroke="#FAFAFA" stroke-linecap="round" stroke-linejoin="round" stroke-opacity=".7" stroke-width=".6" d="M51.721 27.5v2.333m1.167-1.167h-2.333m-8.167 7v1.167m.583-.584h-1.166" style="stroke:#fafafa;stroke:color(display-p3 .9804 .9804 .9804);stroke-opacity:.7"/><path fill="#FAFAFA" fill-opacity=".8" d="M45.852 34.791a1.167 1.167 0 0 0-.839-.838l-3.578-.923a.292.292 0 0 1 0-.561l3.578-.924a1.166 1.166 0 0 0 .839-.837l.923-3.58a.292.292 0 0 1 .561 0l.922 3.58a1.167 1.167 0 0 0 .839.838l3.578.922a.291.291 0 0 1 0 .563l-3.578.922a1.167 1.167 0 0 0-.839.838l-.922 3.579a.292.292 0 0 1-.562 0l-.922-3.579Z" style="fill:#fafafa;fill:color(display-p3 .9804 .9804 .9804);fill-opacity:.8"/><defs><filter id="a" width="60.152" height="49.264" x="37.319" y="21.712" color-interpolation-filters="sRGB" filterUnits="userSpaceOnUse"><feFlood flood-opacity="0" result="BackgroundImageFix"/><feBlend in="SourceGraphic" in2="BackgroundImageFix" result="shape"/><feGaussianBlur result="effect1_foregroundBlur_186_47965" stdDeviation="8.75"/></filter><filter id="b" width="51.786" height="51.079" x="28.926" y="26.537" color-interpolation-filters="sRGB" filterUnits="userSpaceOnUse"><feFlood flood-opacity="0" result="BackgroundImageFix"/><feBlend in="SourceGraphic" in2="BackgroundImageFix" result="shape"/><feGaussianBlur result="effect1_foregroundBlur_186_47965" stdDeviation="8.75"/></filter><filter id="c" width="65.356" height="44.443" x="23.723" y="39.566" color-interpolation-filters="sRGB" filterUnits="userSpaceOnUse"><feFlood flood-opacity="0" result="BackgroundImageFix"/><feBlend in="SourceGraphic" in2="BackgroundImageFix" result="shape"/><feGaussianBlur result="effect1_foregroundBlur_186_47965" stdDeviation="8.75"/></filter><filter id="d" width="60.152" height="44.935" x="5.51" y="39.566" color-interpolation-filters="sRGB" filterUnits="userSpaceOnUse"><feFlood flood-opacity="0" result="BackgroundImageFix"/><feBlend in="SourceGraphic" in2="BackgroundImageFix" result="shape"/><feGaussianBlur result="effect1_foregroundBlur_186_47965" stdDeviation="8.75"/></filter><filter id="e" width="60.152" height="49.264" x=".307" y="29.828" color-interpolation-filters="sRGB" filterUnits="userSpaceOnUse"><feFlood flood-opacity="0" result="BackgroundImageFix"/><feBlend in="SourceGraphic" in2="BackgroundImageFix" result="shape"/><feGaussianBlur result="effect1_foregroundBlur_186_47965" stdDeviation="8.75"/></filter><filter id="f" width="60.152" height="49.264" x="5.51" y="22.451" color-interpolation-filters="sRGB" filterUnits="userSpaceOnUse"><feFlood flood-opacity="0" result="BackgroundImageFix"/><feBlend in="SourceGraphic" in2="BackgroundImageFix" result="shape"/><feGaussianBlur result="effect1_foregroundBlur_186_47965" stdDeviation="8.75"/></filter><filter id="g" width="60.152" height="49.264" x="13.315" y="29.583" color-interpolation-filters="sRGB" filterUnits="userSpaceOnUse"><feFlood flood-opacity="0" result="BackgroundImageFix"/><feBlend in="SourceGraphic" in2="BackgroundImageFix" result="shape"/><feGaussianBlur result="effect1_foregroundBlur_186_47965" stdDeviation="8.75"/></filter><filter id="h" width="52.5" height="52.5" x="20.889" y="6" color-interpolation-filters="sRGB" filterUnits="userSpaceOnUse"><feFlood flood-opacity="0" result="BackgroundImageFix"/><feBlend in="SourceGraphic" in2="BackgroundImageFix" result="shape"/><feColorMatrix in="SourceAlpha" result="hardAlpha" values="0 0 0 0 0 0 0 0 0 0 0 0 0 0 0 0 0 0 127 0"/><feOffset dx=".5" dy=".5"/><feGaussianBlur stdDeviation="1.25"/><feComposite in2="hardAlpha" k2="-1" k3="1" operator="arithmetic"/><feColorMatrix values="0 0 0 0 0.471712 0 0 0 0 0.903147 0 0 0 0 1 0 0 0 0.19 0"/><feBlend in2="shape" result="effect1_innerShadow_186_47965"/></filter><filter id="j" width="49.501" height="49.501" x="36.727" y="-.001" color-interpolation-filters="sRGB" filterUnits="userSpaceOnUse"><feFlood flood-opacity="0" result="BackgroundImageFix"/><feBlend in="SourceGraphic" in2="BackgroundImageFix" result="shape"/><feGaussianBlur result="effect1_foregroundBlur_186_47965" stdDeviation="8.75"/></filter><filter id="k" width="44.678" height="51.347" x="31.888" y="4.903" color-interpolation-filters="sRGB" filterUnits="userSpaceOnUse"><feFlood flood-opacity="0" result="BackgroundImageFix"/><feBlend in="SourceGraphic" in2="BackgroundImageFix" result="shape"/><feGaussianBlur result="effect1_foregroundBlur_186_47965" stdDeviation="8.75"/></filter><filter id="l" width="52.501" height="44.6" x="28.888" y="18.15" color-interpolation-filters="sRGB" filterUnits="userSpaceOnUse"><feFlood flood-opacity="0" result="BackgroundImageFix"/><feBlend in="SourceGraphic" in2="BackgroundImageFix" result="shape"/><feGaussianBlur result="effect1_foregroundBlur_186_47965" stdDeviation="8.75"/></filter><filter id="m" width="49.501" height="45.1" x="18.388" y="18.15" color-interpolation-filters="sRGB" filterUnits="userSpaceOnUse"><feFlood flood-opacity="0" result="BackgroundImageFix"/><feBlend in="SourceGraphic" in2="BackgroundImageFix" result="shape"/><feGaussianBlur result="effect1_foregroundBlur_186_47965" stdDeviation="8.75"/></filter><filter id="n" width="49.501" height="49.501" x="15.388" y="8.249" color-interpolation-filters="sRGB" filterUnits="userSpaceOnUse"><feFlood flood-opacity="0" result="BackgroundImageFix"/><feBlend in="SourceGraphic" in2="BackgroundImageFix" result="shape"/><feGaussianBlur result="effect1_foregroundBlur_186_47965" stdDeviation="8.75"/></filter><filter id="o" width="49.501" height="49.501" x="18.388" y=".749" color-interpolation-filters="sRGB" filterUnits="userSpaceOnUse"><feFlood flood-opacity="0" result="BackgroundImageFix"/><feBlend in="SourceGraphic" in2="BackgroundImageFix" result="shape"/><feGaussianBlur result="effect1_foregroundBlur_186_47965" stdDeviation="8.75"/></filter><filter id="p" width="49.501" height="49.501" x="22.888" y="8" color-interpolation-filters="sRGB" filterUnits="userSpaceOnUse"><feFlood flood-opacity="0" result="BackgroundImageFix"/><feBlend in="SourceGraphic" in2="BackgroundImageFix" result="shape"/><feGaussianBlur result="effect1_foregroundBlur_186_47965" stdDeviation="8.75"/></filter><filter id="r" width="29.686" height="37.233" x="21.044" y="25.577" color-interpolation-filters="sRGB" filterUnits="userSpaceOnUse"><feFlood flood-opacity="0" result="BackgroundImageFix"/><feColorMatrix in="SourceAlpha" result="hardAlpha" values="0 0 0 0 0 0 0 0 0 0 0 0 0 0 0 0 0 0 127 0"/><feOffset dy="2"/><feGaussianBlur stdDeviation="3.5"/><feComposite in2="hardAlpha" operator="out"/><feColorMatrix values="0 0 0 0 0.0235294 0 0 0 0 0.713726 0 0 0 0 0.831373 0 0 0 1 0"/><feBlend in2="BackgroundImageFix" result="effect1_dropShadow_186_47965"/><feBlend in="SourceGraphic" in2="effect1_dropShadow_186_47965" result="shape"/><feGaussianBlur result="effect2_foregroundBlur_186_47965" stdDeviation=".75"/></filter><filter id="t" width="49.501" height="49.501" x="18.641" y="-6.058" color-interpolation-filters="sRGB" filterUnits="userSpaceOnUse"><feFlood flood-opacity="0" result="BackgroundImageFix"/><feBlend in="SourceGraphic" in2="BackgroundImageFix" result="shape"/><feGaussianBlur result="effect1_foregroundBlur_186_47965" stdDeviation="8.75"/></filter><filter id="u" width="62.219" height="39.158" x="7.206" y="6.588" color-interpolation-filters="sRGB" filterUnits="userSpaceOnUse"><feFlood flood-opacity="0" result="BackgroundImageFix"/><feBlend in="SourceGraphic" in2="BackgroundImageFix" result="shape"/><feGaussianBlur result="effect1_foregroundBlur_186_47965" stdDeviation="5.5"/></filter><filter id="v" width="52.5" height="52.5" x="20.889" y="6" color-interpolation-filters="sRGB" filterUnits="userSpaceOnUse"><feFlood flood-opacity="0" result="BackgroundImageFix"/><feBlend in="SourceGraphic" in2="BackgroundImageFix" result="shape"/><feColorMatrix in="SourceAlpha" result="hardAlpha" values="0 0 0 0 0 0 0 0 0 0 0 0 0 0 0 0 0 0 127 0"/><feOffset dx=".5" dy=".5"/><feGaussianBlur stdDeviation="1.25"/><feComposite in2="hardAlpha" k2="-1" k3="1" operator="arithmetic"/><feColorMatrix values="0 0 0 0 0.471712 0 0 0 0 0.903147 0 0 0 0 1 0 0 0 0.19 0"/><feBlend in2="shape" result="effect1_innerShadow_186_47965"/></filter><filter id="x" width="49.501" height="49.501" x="36.727" y="-.001" color-interpolation-filters="sRGB" filterUnits="userSpaceOnUse"><feFlood flood-opacity="0" result="BackgroundImageFix"/><feBlend in="SourceGraphic" in2="BackgroundImageFix" result="shape"/><feGaussianBlur result="effect1_foregroundBlur_186_47965" stdDeviation="8.75"/></filter><filter id="y" width="44.678" height="51.347" x="31.888" y="4.903" color-interpolation-filters="sRGB" filterUnits="userSpaceOnUse"><feFlood flood-opacity="0" result="BackgroundImageFix"/><feBlend in="SourceGraphic" in2="BackgroundImageFix" result="shape"/><feGaussianBlur result="effect1_foregroundBlur_186_47965" stdDeviation="8.75"/></filter><filter id="z" width="52.501" height="44.6" x="28.888" y="18.15" color-interpolation-filters="sRGB" filterUnits="userSpaceOnUse"><feFlood flood-opacity="0" result="BackgroundImageFix"/><feBlend in="SourceGraphic" in2="BackgroundImageFix" result="shape"/><feGaussianBlur result="effect1_foregroundBlur_186_47965" stdDeviation="8.75"/></filter><filter id="A" width="49.501" height="45.1" x="18.388" y="18.15" color-interpolation-filters="sRGB" filterUnits="userSpaceOnUse"><feFlood flood-opacity="0" result="BackgroundImageFix"/><feBlend in="SourceGraphic" in2="BackgroundImageFix" result="shape"/><feGaussianBlur result="effect1_foregroundBlur_186_47965" stdDeviation="8.75"/></filter><filter id="B" width="49.501" height="49.501" x="15.388" y="8.249" color-interpolation-filters="sRGB" filterUnits="userSpaceOnUse"><feFlood flood-opacity="0" result="BackgroundImageFix"/><feBlend in="SourceGraphic" in2="BackgroundImageFix" result="shape"/><feGaussianBlur result="effect1_foregroundBlur_186_47965" stdDeviation="8.75"/></filter><filter id="C" width="49.501" height="49.501" x="18.388" y=".749" color-interpolation-filters="sRGB" filterUnits="userSpaceOnUse"><feFlood flood-opacity="0" result="BackgroundImageFix"/><feBlend in="SourceGraphic" in2="BackgroundImageFix" result="shape"/><feGaussianBlur result="effect1_foregroundBlur_186_47965" stdDeviation="8.75"/></filter><filter id="D" width="49.501" height="49.501" x="22.888" y="8" color-interpolation-filters="sRGB" filterUnits="userSpaceOnUse"><feFlood flood-opacity="0" result="BackgroundImageFix"/><feBlend in="SourceGraphic" in2="BackgroundImageFix" result="shape"/><feGaussianBlur result="effect1_foregroundBlur_186_47965" stdDeviation="8.75"/></filter><filter id="F" width="29.686" height="37.233" x="21.044" y="25.577" color-interpolation-filters="sRGB" filterUnits="userSpaceOnUse"><feFlood flood-opacity="0" result="BackgroundImageFix"/><feColorMatrix in="SourceAlpha" result="hardAlpha" values="0 0 0 0 0 0 0 0 0 0 0 0 0 0 0 0 0 0 127 0"/><feOffset dy="2"/><feGaussianBlur stdDeviation="3.5"/><feComposite in2="hardAlpha" operator="out"/><feColorMatrix values="0 0 0 0 0.0235294 0 0 0 0 0.713726 0 0 0 0 0.831373 0 0 0 1 0"/><feBlend in2="BackgroundImageFix" result="effect1_dropShadow_186_47965"/><feBlend in="SourceGraphic" in2="effect1_dropShadow_186_47965" result="shape"/><feGaussianBlur result="effect2_foregroundBlur_186_47965" stdDeviation=".75"/></filter><filter id="H" width="49.501" height="49.501" x="18.641" y="-6.058" color-interpolation-filters="sRGB" filterUnits="userSpaceOnUse"><feFlood flood-opacity="0" result="BackgroundImageFix"/><feBlend in="SourceGraphic" in2="BackgroundImageFix" result="shape"/><feGaussianBlur result="effect1_foregroundBlur_186_47965" stdDeviation="8.75"/></filter><filter id="I" width="62.219" height="39.158" x="7.206" y="6.588" color-interpolation-filters="sRGB" filterUnits="userSpaceOnUse"><feFlood flood-opacity="0" result="BackgroundImageFix"/><feBlend in="SourceGraphic" in2="BackgroundImageFix" result="shape"/><feGaussianBlur result="effect1_foregroundBlur_186_47965" stdDeviation="5.5"/></filter><linearGradient id="i" x1="68.106" x2="46.889" y1="17.802" y2="32" gradientUnits="userSpaceOnUse"><stop stop-color="#FF3187" stop-opacity=".6" style="stop-color:#ff3187;stop-color:color(display-p3 1 .1924 .5289);stop-opacity:.6"/><stop offset="1" stop-color="#fff" style="stop-color:white;stop-opacity:1"/></linearGradient><linearGradient id="s" x1="45.366" x2="33.522" y1="47.934" y2="30.274" gradientUnits="userSpaceOnUse"><stop offset=".042" stop-color="#fff" stop-opacity="0" style="stop-color:none;stop-opacity:0"/><stop offset=".489" stop-color="#fff" style="stop-color:white;stop-opacity:1"/><stop offset=".952" stop-color="#fff" stop-opacity="0" style="stop-color:none;stop-opacity:0"/></linearGradient><linearGradient id="w" x1="68.106" x2="46.889" y1="17.802" y2="32" gradientUnits="userSpaceOnUse"><stop stop-color="#FF3187" stop-opacity=".6" style="stop-color:#ff3187;stop-color:color(display-p3 1 .1924 .5289);stop-opacity:.6"/><stop offset="1" stop-color="#fff" style="stop-color:white;stop-opacity:1"/></linearGradient><linearGradient id="G" x1="45.366" x2="33.522" y1="47.934" y2="30.274" gradientUnits="userSpaceOnUse"><stop offset=".042" stop-color="#fff" stop-opacity="0" style="stop-color:none;stop-opacity:0"/><stop offset=".489" stop-color="#fff" style="stop-color:white;stop-opacity:1"/><stop offset=".952" stop-color="#fff" stop-opacity="0" style="stop-color:none;stop-opacity:0"/></linearGradient></defs></svg>