<svg xmlns="http://www.w3.org/2000/svg" width="195" height="170" fill="none"><g opacity=".2"><g filter="url(#a)"><ellipse cx="134.79" cy="93.182" fill="#E36E20" rx="25.152" ry="14.264" style="fill:#e36e20;fill:color(display-p3 .8889 .4307 .1252);fill-opacity:1"/></g><g filter="url(#b)"><ellipse cx="109.638" cy="104.646" fill="#F50AE1" rx="16.787" ry="16.079" style="fill:#f50ae1;fill:color(display-p3 .9595 .038 .8827);fill-opacity:1"/></g><g filter="url(#c)"><ellipse cx="112.8" cy="124.069" fill="#E87021" rx="30.356" ry="9.443" style="fill:#e87021;fill:color(display-p3 .9083 .4409 .1294);fill-opacity:1"/></g><g filter="url(#d)"><ellipse cx="71.173" cy="124.561" fill="#2EBCCC" rx="25.152" ry="9.935" style="fill:#2ebccc;fill:color(display-p3 .1819 .7385 .8004);fill-opacity:1"/></g><g filter="url(#e)"><ellipse cx="60.766" cy="109.413" fill="#F70" rx="25.152" ry="14.264" style="fill:#f70;fill:color(display-p3 1 .4667 0);fill-opacity:1"/></g><g filter="url(#f)"><ellipse cx="71.173" cy="94.659" fill="#507EE0" rx="25.152" ry="14.264" style="fill:#507ee0;fill:color(display-p3 .3137 .4927 .879);fill-opacity:1"/></g><g filter="url(#g)"><ellipse cx="86.783" cy="108.922" fill="#5800F0" rx="25.152" ry="14.264" style="fill:#5800f0;fill:color(display-p3 .3456 0 .9426);fill-opacity:1"/></g></g><g filter="url(#h)"><circle cx="93.778" cy="64.493" r="52" fill="#fff" fill-opacity=".4" style="fill:#fff;fill-opacity:.4"/><circle cx="93.778" cy="64.493" r="52" fill="url(#i)" fill-opacity=".2"/></g><circle cx="93.778" cy="64.493" r="51.5" stroke="#fff" stroke-opacity=".05" style="stroke:#fff;stroke-opacity:.05"/><g filter="url(#j)"><circle cx="122.955" cy="49.992" r="14.501" fill="#E36E20" style="fill:#e36e20;fill:color(display-p3 .8889 .4307 .1252);fill-opacity:1"/></g><g filter="url(#k)"><ellipse cx="108.453" cy="61.648" fill="#F50AE1" rx="9.678" ry="16.347" style="fill:#f50ae1;fill:color(display-p3 .9595 .038 .8827);fill-opacity:1"/></g><g filter="url(#l)"><ellipse cx="110.276" cy="81.394" fill="#E87021" rx="17.501" ry="9.6" style="fill:#e87021;fill:color(display-p3 .9083 .4409 .1294);fill-opacity:1"/></g><g filter="url(#m)"><ellipse cx="86.276" cy="81.894" fill="#2EBCCC" rx="14.501" ry="10.1" style="fill:#2ebccc;fill:color(display-p3 .1819 .7385 .8004);fill-opacity:1"/></g><g filter="url(#n)"><circle cx="80.276" cy="66.493" r="14.501" fill="#F70" style="fill:#f70;fill:color(display-p3 1 .4667 0);fill-opacity:1"/></g><g filter="url(#o)"><circle cx="86.276" cy="51.493" r="14.501" fill="#fff" style="fill:#fff;fill-opacity:1"/></g><g filter="url(#p)"><circle cx="95.276" cy="65.995" r="14.501" fill="#5800F0" style="fill:#5800f0;fill:color(display-p3 .3456 0 .9426);fill-opacity:1"/></g><mask id="q" width="105" height="105" x="41" y="12" maskUnits="userSpaceOnUse" style="mask-type:alpha"><circle cx="93.778" cy="64.493" r="51.5" fill="#fff" fill-opacity=".8" stroke="#24262C" style="fill:#fff;fill-opacity:.8;stroke:#24262c;stroke:color(display-p3 .1426 .1475 .1721);stroke-opacity:1"/></mask><g mask="url(#q)"><g filter="url(#r)" opacity=".5"><path fill="url(#s)" d="M56.09 70.025c5.601 6.248 6.419-2.542 7.496-8.378-4.836 26.2 23.875 36.77 23.875 36.77L75.49 96.579l8.2 11.534s-24.024-11.534-27.6-38.088Z" shape-rendering="crispEdges"/></g><g filter="url(#t)"><circle cx="86.783" cy="37.878" r="14.501" fill="#FF5050" style="fill:#ff5050;fill:color(display-p3 1 .3151 .3151);fill-opacity:1"/><circle cx="86.783" cy="37.878" r="14.001" stroke="#24262C" style="stroke:#24262c;stroke:color(display-p3 .1426 .1475 .1721);stroke-opacity:1"/></g><g filter="url(#u)"><ellipse cx="76.632" cy="52.827" fill="#D9D9D9" rx="43.631" ry="2.86" style="fill:#d9d9d9;fill:color(display-p3 .851 .851 .851);fill-opacity:1" transform="rotate(-22.864 76.632 52.827)"/><path stroke="#24262C" d="M116.361 35.892c.001 0 0 .003-.004.01l.004-.01Zm-.522.294c.114-.01.213-.015.298-.017-.06.06-.133.127-.221.202-.433.372-1.126.854-2.071 1.436-1.882 1.162-4.691 2.68-8.224 4.45-7.061 3.538-16.977 8.067-28.072 12.745-11.095 4.678-21.26 8.617-28.723 11.204-3.734 1.293-6.781 2.245-8.927 2.782-1.076.27-1.906.43-2.474.48-.115.01-.214.016-.298.017.06-.06.133-.126.22-.201.433-.372 1.127-.854 2.071-1.437 1.883-1.161 4.691-2.679 8.224-4.449 7.062-3.538 16.978-8.067 28.073-12.745 11.095-4.679 21.26-8.617 28.723-11.204 3.733-1.294 6.78-2.245 8.926-2.783 1.077-.269 1.906-.429 2.475-.48ZM36.771 69.453s.004 0 .01.004l-.01-.004Zm.131.31s0-.003.004-.01a.036.036 0 0 1-.004.01Zm79.58-33.565.01.004a.04.04 0 0 1-.01-.004Z" style="stroke:#24262c;stroke:color(display-p3 .1426 .1475 .1721);stroke-opacity:1"/></g></g><g filter="url(#v)"><circle cx="93.778" cy="64.493" r="52" fill="#fff" fill-opacity=".4" style="fill:#fff;fill-opacity:.4"/><circle cx="93.778" cy="64.493" r="52" fill="url(#w)" fill-opacity=".2"/></g><circle cx="93.778" cy="64.493" r="51.5" stroke="#fff" stroke-opacity=".05" style="stroke:#fff;stroke-opacity:.05"/><g filter="url(#x)" opacity=".3"><ellipse cx="119.585" cy="47.398" fill="#E36E20" fill-opacity=".4" rx="7.663" ry="23.923" style="fill:#e36e20;fill:color(display-p3 .8889 .4307 .1252);fill-opacity:.4" transform="rotate(-22.77 119.585 47.398)"/></g><g filter="url(#y)"><ellipse cx="108.453" cy="61.648" fill="#F50AE1" rx="9.678" ry="16.347" style="fill:#f50ae1;fill:color(display-p3 .9595 .038 .8827);fill-opacity:1"/></g><g filter="url(#z)"><ellipse cx="110.276" cy="81.394" fill="#E87021" rx="17.501" ry="9.6" style="fill:#e87021;fill:color(display-p3 .9083 .4409 .1294);fill-opacity:1"/></g><g filter="url(#A)"><ellipse cx="86.276" cy="81.894" fill="#2EBCCC" rx="14.501" ry="10.1" style="fill:#2ebccc;fill:color(display-p3 .1819 .7385 .8004);fill-opacity:1"/></g><g filter="url(#B)"><circle cx="80.276" cy="66.493" r="14.501" fill="#F70" style="fill:#f70;fill:color(display-p3 1 .4667 0);fill-opacity:1"/></g><g filter="url(#C)"><circle cx="86.276" cy="51.493" r="14.501" fill="#fff" style="fill:#fff;fill-opacity:1"/></g><g filter="url(#D)"><circle cx="95.276" cy="65.995" r="14.501" fill="#5800F0" style="fill:#5800f0;fill:color(display-p3 .3456 0 .9426);fill-opacity:1"/></g><mask id="E" width="105" height="105" x="41" y="12" maskUnits="userSpaceOnUse" style="mask-type:alpha"><circle cx="93.778" cy="64.493" r="51.5" fill="#fff" fill-opacity=".8" stroke="#24262C" style="fill:#fff;fill-opacity:.8;stroke:#24262c;stroke:color(display-p3 .1426 .1475 .1721);stroke-opacity:1"/></mask><g mask="url(#E)"><g filter="url(#F)" opacity=".5"><path fill="url(#G)" d="M56.09 70.025c5.601 6.248 6.419-2.542 7.496-8.378-4.836 26.2 23.875 36.77 23.875 36.77L75.49 96.579l8.2 11.534s-24.024-11.534-27.6-38.088Z" shape-rendering="crispEdges"/></g><g filter="url(#H)"><circle cx="86.783" cy="37.878" r="14.501" fill="#FF5050" style="fill:#ff5050;fill:color(display-p3 1 .3151 .3151);fill-opacity:1"/><circle cx="86.783" cy="37.878" r="14.001" stroke="#24262C" style="stroke:#24262c;stroke:color(display-p3 .1426 .1475 .1721);stroke-opacity:1"/></g><g filter="url(#I)"><ellipse cx="76.632" cy="52.827" fill="#D9D9D9" rx="43.631" ry="2.86" style="fill:#d9d9d9;fill:color(display-p3 .851 .851 .851);fill-opacity:1" transform="rotate(-22.864 76.632 52.827)"/><path stroke="#24262C" d="M116.361 35.892c.001 0 0 .003-.004.01l.004-.01Zm-.522.294c.114-.01.213-.015.298-.017-.06.06-.133.127-.221.202-.433.372-1.126.854-2.071 1.436-1.882 1.162-4.691 2.68-8.224 4.45-7.061 3.538-16.977 8.067-28.072 12.745-11.095 4.678-21.26 8.617-28.723 11.204-3.734 1.293-6.781 2.245-8.927 2.782-1.076.27-1.906.43-2.474.48-.115.01-.214.016-.298.017.06-.06.133-.126.22-.201.433-.372 1.127-.854 2.071-1.437 1.883-1.161 4.691-2.679 8.224-4.449 7.062-3.538 16.978-8.067 28.073-12.745 11.095-4.679 21.26-8.617 28.723-11.204 3.733-1.294 6.78-2.245 8.926-2.783 1.077-.269 1.906-.429 2.475-.48ZM36.771 69.453s.004 0 .01.004l-.01-.004Zm.131.31s0-.003.004-.01a.036.036 0 0 1-.004.01Zm79.58-33.565.01.004a.04.04 0 0 1-.01-.004Z" style="stroke:#24262c;stroke:color(display-p3 .1426 .1475 .1721);stroke-opacity:1"/></g></g><path stroke="#FAFAFA" stroke-linecap="round" stroke-linejoin="round" stroke-opacity=".7" stroke-width="1.2" d="M103.443 55.492v4.667m2.333-2.334h-4.667m-16.333 14v2.334m1.167-1.167h-2.334" style="stroke:#fafafa;stroke:color(display-p3 .9804 .9804 .9804);stroke-opacity:.7"/><path fill="#FAFAFA" fill-opacity=".8" d="M91.703 70.076a2.333 2.333 0 0 0-1.677-1.677l-7.157-1.846a.583.583 0 0 1 0-1.122l7.157-1.847a2.334 2.334 0 0 0 1.677-1.675l1.845-7.158a.583.583 0 0 1 1.124 0l1.844 7.158a2.333 2.333 0 0 0 1.677 1.676l7.157 1.845a.583.583 0 0 1 0 1.124L98.193 68.4a2.333 2.333 0 0 0-1.677 1.677l-1.846 7.157a.583.583 0 0 1-1.123 0l-1.844-7.157Z" style="fill:#fafafa;fill:color(display-p3 .9804 .9804 .9804);fill-opacity:.8"/><defs><filter id="a" width="120.305" height="98.527" x="74.638" y="43.918" color-interpolation-filters="sRGB" filterUnits="userSpaceOnUse"><feFlood flood-opacity="0" result="BackgroundImageFix"/><feBlend in="SourceGraphic" in2="BackgroundImageFix" result="shape"/><feGaussianBlur result="effect1_foregroundBlur_195_75609" stdDeviation="17.5"/></filter><filter id="b" width="103.573" height="102.159" x="57.851" y="53.567" color-interpolation-filters="sRGB" filterUnits="userSpaceOnUse"><feFlood flood-opacity="0" result="BackgroundImageFix"/><feBlend in="SourceGraphic" in2="BackgroundImageFix" result="shape"/><feGaussianBlur result="effect1_foregroundBlur_195_75609" stdDeviation="17.5"/></filter><filter id="c" width="130.712" height="88.886" x="47.444" y="79.626" color-interpolation-filters="sRGB" filterUnits="userSpaceOnUse"><feFlood flood-opacity="0" result="BackgroundImageFix"/><feBlend in="SourceGraphic" in2="BackgroundImageFix" result="shape"/><feGaussianBlur result="effect1_foregroundBlur_195_75609" stdDeviation="17.5"/></filter><filter id="d" width="120.305" height="89.87" x="11.02" y="79.626" color-interpolation-filters="sRGB" filterUnits="userSpaceOnUse"><feFlood flood-opacity="0" result="BackgroundImageFix"/><feBlend in="SourceGraphic" in2="BackgroundImageFix" result="shape"/><feGaussianBlur result="effect1_foregroundBlur_195_75609" stdDeviation="17.5"/></filter><filter id="e" width="120.305" height="98.527" x=".613" y="60.149" color-interpolation-filters="sRGB" filterUnits="userSpaceOnUse"><feFlood flood-opacity="0" result="BackgroundImageFix"/><feBlend in="SourceGraphic" in2="BackgroundImageFix" result="shape"/><feGaussianBlur result="effect1_foregroundBlur_195_75609" stdDeviation="17.5"/></filter><filter id="f" width="120.305" height="98.527" x="11.02" y="45.395" color-interpolation-filters="sRGB" filterUnits="userSpaceOnUse"><feFlood flood-opacity="0" result="BackgroundImageFix"/><feBlend in="SourceGraphic" in2="BackgroundImageFix" result="shape"/><feGaussianBlur result="effect1_foregroundBlur_195_75609" stdDeviation="17.5"/></filter><filter id="g" width="120.305" height="98.527" x="26.631" y="59.659" color-interpolation-filters="sRGB" filterUnits="userSpaceOnUse"><feFlood flood-opacity="0" result="BackgroundImageFix"/><feBlend in="SourceGraphic" in2="BackgroundImageFix" result="shape"/><feGaussianBlur result="effect1_foregroundBlur_195_75609" stdDeviation="17.5"/></filter><filter id="h" width="105" height="105" x="41.778" y="12.493" color-interpolation-filters="sRGB" filterUnits="userSpaceOnUse"><feFlood flood-opacity="0" result="BackgroundImageFix"/><feBlend in="SourceGraphic" in2="BackgroundImageFix" result="shape"/><feColorMatrix in="SourceAlpha" result="hardAlpha" values="0 0 0 0 0 0 0 0 0 0 0 0 0 0 0 0 0 0 127 0"/><feOffset dx="1" dy="1"/><feGaussianBlur stdDeviation="2.5"/><feComposite in2="hardAlpha" k2="-1" k3="1" operator="arithmetic"/><feColorMatrix values="0 0 0 0 0.471712 0 0 0 0 0.903147 0 0 0 0 1 0 0 0 0.19 0"/><feBlend in2="shape" result="effect1_innerShadow_195_75609"/></filter><filter id="j" width="99.003" height="99.003" x="73.453" y=".491" color-interpolation-filters="sRGB" filterUnits="userSpaceOnUse"><feFlood flood-opacity="0" result="BackgroundImageFix"/><feBlend in="SourceGraphic" in2="BackgroundImageFix" result="shape"/><feGaussianBlur result="effect1_foregroundBlur_195_75609" stdDeviation="17.5"/></filter><filter id="k" width="89.356" height="102.694" x="63.775" y="10.3" color-interpolation-filters="sRGB" filterUnits="userSpaceOnUse"><feFlood flood-opacity="0" result="BackgroundImageFix"/><feBlend in="SourceGraphic" in2="BackgroundImageFix" result="shape"/><feGaussianBlur result="effect1_foregroundBlur_195_75609" stdDeviation="17.5"/></filter><filter id="l" width="105.003" height="89.201" x="57.775" y="36.794" color-interpolation-filters="sRGB" filterUnits="userSpaceOnUse"><feFlood flood-opacity="0" result="BackgroundImageFix"/><feBlend in="SourceGraphic" in2="BackgroundImageFix" result="shape"/><feGaussianBlur result="effect1_foregroundBlur_195_75609" stdDeviation="17.5"/></filter><filter id="m" width="99.003" height="90.201" x="36.775" y="36.794" color-interpolation-filters="sRGB" filterUnits="userSpaceOnUse"><feFlood flood-opacity="0" result="BackgroundImageFix"/><feBlend in="SourceGraphic" in2="BackgroundImageFix" result="shape"/><feGaussianBlur result="effect1_foregroundBlur_195_75609" stdDeviation="17.5"/></filter><filter id="n" width="99.003" height="99.003" x="30.775" y="16.992" color-interpolation-filters="sRGB" filterUnits="userSpaceOnUse"><feFlood flood-opacity="0" result="BackgroundImageFix"/><feBlend in="SourceGraphic" in2="BackgroundImageFix" result="shape"/><feGaussianBlur result="effect1_foregroundBlur_195_75609" stdDeviation="17.5"/></filter><filter id="o" width="99.003" height="99.003" x="36.775" y="1.992" color-interpolation-filters="sRGB" filterUnits="userSpaceOnUse"><feFlood flood-opacity="0" result="BackgroundImageFix"/><feBlend in="SourceGraphic" in2="BackgroundImageFix" result="shape"/><feGaussianBlur result="effect1_foregroundBlur_195_75609" stdDeviation="17.5"/></filter><filter id="p" width="99.003" height="99.003" x="45.775" y="16.493" color-interpolation-filters="sRGB" filterUnits="userSpaceOnUse"><feFlood flood-opacity="0" result="BackgroundImageFix"/><feBlend in="SourceGraphic" in2="BackgroundImageFix" result="shape"/><feGaussianBlur result="effect1_foregroundBlur_195_75609" stdDeviation="17.5"/></filter><filter id="r" width="59.372" height="74.465" x="42.089" y="51.648" color-interpolation-filters="sRGB" filterUnits="userSpaceOnUse"><feFlood flood-opacity="0" result="BackgroundImageFix"/><feColorMatrix in="SourceAlpha" result="hardAlpha" values="0 0 0 0 0 0 0 0 0 0 0 0 0 0 0 0 0 0 127 0"/><feOffset dy="4"/><feGaussianBlur stdDeviation="7"/><feComposite in2="hardAlpha" operator="out"/><feColorMatrix values="0 0 0 0 0.0235294 0 0 0 0 0.713726 0 0 0 0 0.831373 0 0 0 1 0"/><feBlend in2="BackgroundImageFix" result="effect1_dropShadow_195_75609"/><feBlend in="SourceGraphic" in2="effect1_dropShadow_195_75609" result="shape"/><feGaussianBlur result="effect2_foregroundBlur_195_75609" stdDeviation="1.5"/></filter><filter id="t" width="99.003" height="99.003" x="37.282" y="-11.623" color-interpolation-filters="sRGB" filterUnits="userSpaceOnUse"><feFlood flood-opacity="0" result="BackgroundImageFix"/><feBlend in="SourceGraphic" in2="BackgroundImageFix" result="shape"/><feGaussianBlur result="effect1_foregroundBlur_195_75609" stdDeviation="17.5"/></filter><filter id="u" width="124.438" height="78.317" x="14.413" y="13.669" color-interpolation-filters="sRGB" filterUnits="userSpaceOnUse"><feFlood flood-opacity="0" result="BackgroundImageFix"/><feBlend in="SourceGraphic" in2="BackgroundImageFix" result="shape"/><feGaussianBlur result="effect1_foregroundBlur_195_75609" stdDeviation="11"/></filter><filter id="v" width="105" height="105" x="41.778" y="12.493" color-interpolation-filters="sRGB" filterUnits="userSpaceOnUse"><feFlood flood-opacity="0" result="BackgroundImageFix"/><feBlend in="SourceGraphic" in2="BackgroundImageFix" result="shape"/><feColorMatrix in="SourceAlpha" result="hardAlpha" values="0 0 0 0 0 0 0 0 0 0 0 0 0 0 0 0 0 0 127 0"/><feOffset dx="1" dy="1"/><feGaussianBlur stdDeviation="2.5"/><feComposite in2="hardAlpha" k2="-1" k3="1" operator="arithmetic"/><feColorMatrix values="0 0 0 0 0.471712 0 0 0 0 0.903147 0 0 0 0 1 0 0 0 0.19 0"/><feBlend in2="shape" result="effect1_innerShadow_195_75609"/></filter><filter id="x" width="53.295" height="74.519" x="92.937" y="10.138" color-interpolation-filters="sRGB" filterUnits="userSpaceOnUse"><feFlood flood-opacity="0" result="BackgroundImageFix"/><feBlend in="SourceGraphic" in2="BackgroundImageFix" result="shape"/><feGaussianBlur result="effect1_foregroundBlur_195_75609" stdDeviation="7.5"/></filter><filter id="y" width="89.356" height="102.694" x="63.775" y="10.3" color-interpolation-filters="sRGB" filterUnits="userSpaceOnUse"><feFlood flood-opacity="0" result="BackgroundImageFix"/><feBlend in="SourceGraphic" in2="BackgroundImageFix" result="shape"/><feGaussianBlur result="effect1_foregroundBlur_195_75609" stdDeviation="17.5"/></filter><filter id="z" width="105.003" height="89.201" x="57.775" y="36.794" color-interpolation-filters="sRGB" filterUnits="userSpaceOnUse"><feFlood flood-opacity="0" result="BackgroundImageFix"/><feBlend in="SourceGraphic" in2="BackgroundImageFix" result="shape"/><feGaussianBlur result="effect1_foregroundBlur_195_75609" stdDeviation="17.5"/></filter><filter id="A" width="99.003" height="90.201" x="36.775" y="36.794" color-interpolation-filters="sRGB" filterUnits="userSpaceOnUse"><feFlood flood-opacity="0" result="BackgroundImageFix"/><feBlend in="SourceGraphic" in2="BackgroundImageFix" result="shape"/><feGaussianBlur result="effect1_foregroundBlur_195_75609" stdDeviation="17.5"/></filter><filter id="B" width="99.003" height="99.003" x="30.775" y="16.992" color-interpolation-filters="sRGB" filterUnits="userSpaceOnUse"><feFlood flood-opacity="0" result="BackgroundImageFix"/><feBlend in="SourceGraphic" in2="BackgroundImageFix" result="shape"/><feGaussianBlur result="effect1_foregroundBlur_195_75609" stdDeviation="17.5"/></filter><filter id="C" width="99.003" height="99.003" x="36.775" y="1.992" color-interpolation-filters="sRGB" filterUnits="userSpaceOnUse"><feFlood flood-opacity="0" result="BackgroundImageFix"/><feBlend in="SourceGraphic" in2="BackgroundImageFix" result="shape"/><feGaussianBlur result="effect1_foregroundBlur_195_75609" stdDeviation="17.5"/></filter><filter id="D" width="99.003" height="99.003" x="45.775" y="16.493" color-interpolation-filters="sRGB" filterUnits="userSpaceOnUse"><feFlood flood-opacity="0" result="BackgroundImageFix"/><feBlend in="SourceGraphic" in2="BackgroundImageFix" result="shape"/><feGaussianBlur result="effect1_foregroundBlur_195_75609" stdDeviation="17.5"/></filter><filter id="F" width="59.372" height="74.465" x="42.089" y="51.648" color-interpolation-filters="sRGB" filterUnits="userSpaceOnUse"><feFlood flood-opacity="0" result="BackgroundImageFix"/><feColorMatrix in="SourceAlpha" result="hardAlpha" values="0 0 0 0 0 0 0 0 0 0 0 0 0 0 0 0 0 0 127 0"/><feOffset dy="4"/><feGaussianBlur stdDeviation="7"/><feComposite in2="hardAlpha" operator="out"/><feColorMatrix values="0 0 0 0 0.0235294 0 0 0 0 0.713726 0 0 0 0 0.831373 0 0 0 1 0"/><feBlend in2="BackgroundImageFix" result="effect1_dropShadow_195_75609"/><feBlend in="SourceGraphic" in2="effect1_dropShadow_195_75609" result="shape"/><feGaussianBlur result="effect2_foregroundBlur_195_75609" stdDeviation="1.5"/></filter><filter id="H" width="99.003" height="99.003" x="37.282" y="-11.623" color-interpolation-filters="sRGB" filterUnits="userSpaceOnUse"><feFlood flood-opacity="0" result="BackgroundImageFix"/><feBlend in="SourceGraphic" in2="BackgroundImageFix" result="shape"/><feGaussianBlur result="effect1_foregroundBlur_195_75609" stdDeviation="17.5"/></filter><filter id="I" width="124.438" height="78.317" x="14.413" y="13.669" color-interpolation-filters="sRGB" filterUnits="userSpaceOnUse"><feFlood flood-opacity="0" result="BackgroundImageFix"/><feBlend in="SourceGraphic" in2="BackgroundImageFix" result="shape"/><feGaussianBlur result="effect1_foregroundBlur_195_75609" stdDeviation="11"/></filter><linearGradient id="i" x1="136.214" x2="93.778" y1="36.097" y2="64.493" gradientUnits="userSpaceOnUse"><stop stop-color="#FF3187" stop-opacity=".6" style="stop-color:#ff3187;stop-color:color(display-p3 1 .1924 .5289);stop-opacity:.6"/><stop offset="1" stop-color="#fff" style="stop-color:white;stop-opacity:1"/></linearGradient><linearGradient id="s" x1="90.733" x2="67.045" y1="96.361" y2="61.042" gradientUnits="userSpaceOnUse"><stop offset=".042" stop-color="#fff" stop-opacity="0" style="stop-color:none;stop-opacity:0"/><stop offset=".489" stop-color="#fff" style="stop-color:white;stop-opacity:1"/><stop offset=".952" stop-color="#fff" stop-opacity="0" style="stop-color:none;stop-opacity:0"/></linearGradient><linearGradient id="w" x1="136.214" x2="93.778" y1="36.097" y2="64.493" gradientUnits="userSpaceOnUse"><stop stop-color="#FF3187" stop-opacity=".6" style="stop-color:#ff3187;stop-color:color(display-p3 1 .1924 .5289);stop-opacity:.6"/><stop offset="1" stop-color="#fff" style="stop-color:white;stop-opacity:1"/></linearGradient><linearGradient id="G" x1="90.733" x2="67.045" y1="96.361" y2="61.042" gradientUnits="userSpaceOnUse"><stop offset=".042" stop-color="#fff" stop-opacity="0" style="stop-color:none;stop-opacity:0"/><stop offset=".489" stop-color="#fff" style="stop-color:white;stop-opacity:1"/><stop offset=".952" stop-color="#fff" stop-opacity="0" style="stop-color:none;stop-opacity:0"/></linearGradient></defs></svg>